# xmcd
#
# Track frame offsets:
#	150
#	23121
#	43865
#	68197
#	92426
#	115669
#	141452
#	172556
#	202463
#	225066
#
# Disc length: 3332 seconds
#
# Revision: 0
# Processed by: cddbd v1.5.2PL0 Copyright (c) Steve Scherf et al.
# Submitted via: EasyCDDAExtractor 2010.6.0.0
#
DISCID=7d0d020a
DTITLE=Chuck Roberson - Love Freak
DYEAR=2000
DGENRE=Club
TTITLE0=I'll Even Blow Down There
TTITLE1=Love Freak
TTITLE2=She Made A Hoochie Man Out Of Me
TTITLE3=Candy
TTITLE4=Party Freak
TTITLE5=You Ain't The Only One I'm Giving Some
TTITLE6=Booty Scoot 2000
TTITLE7=I'd Be With You
TTITLE8=Back In The Day
TTITLE9=If You're Lucky Enough To Have A Good Woman
EXTD=
EXTT0=
EXTT1=
EXTT2=
EXTT3=
EXTT4=
EXTT5=
EXTT6=
EXTT7=
EXTT8=
EXTT9=
PLAYORDER=
